<svg width="11" height="18" viewBox="0 0 11 18" fill="none" xmlns="http://www.w3.org/2000/svg">
<path d="M6.5568 8.39827C6.5568 8.39827 1.27074 5.53268 0.153016 4.63256C0.0284403 4.5396 0.396932 2.88099 0.427523 2.66131C0.458112 2.44165 0.816674 0.854332 0.702029 0.69007C3.66809 3.18822 6.90665 5.2008 10.5084 6.59811C10.7679 6.70985 9.70982 10.3575 9.96929 10.4693L9.90052 10.4597C9.88026 10.6052 9.79123 10.7411 9.79123 10.7411C6.98119 12.5832 4.27545 14.6638 1.87823 17.0083C2.1125 16.817 2.10189 15.4022 2.15274 15.037C2.20359 14.6719 2.17272 13.4026 2.42725 13.0658C4.43112 10.996 6.5568 8.39827 6.5568 8.39827Z" fill="white"/>
</svg>
