<svg width="21" height="13" viewBox="0 0 21 13" fill="none" xmlns="http://www.w3.org/2000/svg">
<path d="M18.8333 1.83366H13V0.166992H18.8333V1.83366ZM20.2717 10.167C19.9033 11.2478 18.5808 12.667 16.0208 12.667C13.4592 12.667 11.3842 11.2262 11.3842 7.93783C11.3842 4.67949 13.3217 3.00449 15.9392 3.00449C18.5075 3.00449 20.0758 4.48949 20.4183 6.69283C20.4833 7.11449 20.5092 7.68283 20.4975 8.47616H13.8083C13.9167 11.152 16.7108 11.2362 17.6317 10.167H20.2717ZM13.8667 6.83366H18.0042C17.9167 5.54449 17.0575 4.98449 15.94 4.98449C14.7183 4.98449 14.0425 5.62449 13.8667 6.83366ZM5.88833 12.657H0.5V0.184492H6.29417C10.8575 0.251992 10.9442 4.72116 8.56083 5.93949C11.445 6.98949 11.5417 12.657 5.88833 12.657ZM3 5.16699H5.98667C8.07667 5.16699 8.40833 2.66699 5.72667 2.66699H3V5.16699ZM5.82583 7.66699H3V10.1803H5.78417C8.33 10.1803 8.17417 7.66699 5.82583 7.66699Z" fill="#525252"/>
</svg>
