<svg width="34" height="23" viewBox="0 0 34 23" fill="none" xmlns="http://www.w3.org/2000/svg">
<path d="M32.325 23H1.67505C1.47806 23 1.28301 22.9612 1.10102 22.8858C0.919035 22.8104 0.753675 22.6999 0.614388 22.5606C0.4751 22.4213 0.36461 22.256 0.289227 22.074C0.213845 21.892 0.175049 21.6969 0.175049 21.5V17.45C0.178362 12.9899 1.95245 8.71356 5.10739 5.56096C8.26233 2.40836 12.5399 0.63745 17 0.637451C21.4601 0.63745 25.7378 2.40836 28.8927 5.56096C32.0476 8.71356 33.8217 12.9899 33.825 17.45V21.5C33.825 21.8978 33.667 22.2793 33.3857 22.5606C33.1044 22.8419 32.7229 23 32.325 23Z" fill="#B485FF"/>
</svg>
