<svg width="60" height="61" viewBox="0 0 60 61" fill="none" xmlns="http://www.w3.org/2000/svg">
<path d="M38.1251 43.75C50.2064 43.75 60.0001 33.9562 60.0001 21.875C60.0001 9.79377 50.2064 0 38.1251 0C26.0439 0 16.2501 9.79377 16.2501 21.875C16.2501 33.9562 26.0439 43.75 38.1251 43.75Z" fill="#F5F2E1"/>
<path d="M38.2251 19.925C37.7824 19.933 37.3505 19.7882 37.0021 19.515C36.6538 19.2418 36.4102 18.8568 36.3126 18.425C36.243 18.0003 36.3237 17.5646 36.5408 17.1929C36.7579 16.8213 37.0978 16.537 37.5019 16.3889C37.9061 16.2409 38.3492 16.2384 38.755 16.3819C39.1607 16.5254 39.5038 16.8058 39.7251 17.175C39.8974 17.4608 40.1415 17.6966 40.4331 17.8589C40.7248 18.0212 41.0538 18.1043 41.3876 18.1C41.7229 18.1038 42.0534 18.0205 42.3468 17.8582C42.6403 17.696 42.8866 17.4604 43.0617 17.1744C43.2368 16.8884 43.3347 16.5619 43.3458 16.2268C43.3569 15.8917 43.2808 15.5594 43.1251 15.2625C42.4454 14.0729 41.364 13.1644 40.0751 12.7C40.0767 12.4609 40.031 12.2239 39.9407 12.0025C39.8504 11.7812 39.7171 11.5799 39.5486 11.4103C39.3802 11.2406 39.1798 11.106 38.9591 11.0142C38.7384 10.9223 38.5016 10.875 38.2626 10.875H37.9876C37.7485 10.875 37.5118 10.9223 37.2911 11.0142C37.0703 11.106 36.87 11.2406 36.7015 11.4103C36.533 11.5799 36.3998 11.7812 36.3094 12.0025C36.2191 12.2239 36.1734 12.4609 36.1751 12.7C35.4275 12.971 34.7439 13.3931 34.1667 13.94C33.5895 14.4869 33.1313 15.1469 32.8205 15.8787C32.5097 16.6106 32.353 17.3987 32.3602 18.1938C32.3675 18.9888 32.5385 19.7739 32.8626 20.5C33.3477 21.5087 34.1091 22.359 35.0584 22.952C36.0077 23.5451 37.1058 23.8565 38.2251 23.85C38.545 23.8672 38.855 23.9672 39.1247 24.1402C39.3943 24.3132 39.6144 24.5533 39.7634 24.837C39.9124 25.1206 39.9852 25.4381 39.9747 25.7583C39.9641 26.0785 39.8706 26.3905 39.7032 26.6637C39.5358 26.9369 39.3004 27.162 39.0199 27.3169C38.7394 27.4717 38.4235 27.5511 38.1031 27.5472C37.7827 27.5433 37.4689 27.4562 37.1923 27.2946C36.9156 27.1329 36.6857 26.9022 36.5251 26.625C36.3528 26.3392 36.1087 26.1034 35.817 25.9411C35.5253 25.7788 35.1963 25.6957 34.8626 25.7C34.5273 25.6962 34.1968 25.7795 33.9033 25.9418C33.6099 26.104 33.3636 26.3396 33.1885 26.6256C33.0134 26.9116 32.9155 27.2381 32.9043 27.5732C32.8932 27.9083 32.9693 28.2406 33.1251 28.5375C33.8048 29.7271 34.8861 30.6356 36.1751 31.1C36.1734 31.3391 36.2191 31.5761 36.3094 31.7975C36.3998 32.0188 36.533 32.2201 36.7015 32.3897C36.87 32.5593 37.0703 32.694 37.2911 32.7858C37.5118 32.8777 37.7485 32.925 37.9876 32.925H38.2626C38.5016 32.925 38.7384 32.8777 38.9591 32.7858C39.1798 32.694 39.3802 32.5593 39.5486 32.3897C39.7171 32.2201 39.8504 32.0188 39.9407 31.7975C40.031 31.5761 40.0767 31.3391 40.0751 31.1C41.3346 30.6402 42.3939 29.7546 43.0696 28.5964C43.7453 27.4382 43.9951 26.0803 43.7756 24.7575C43.5561 23.4347 42.8812 22.2302 41.8677 21.3524C40.8541 20.4745 39.5656 19.9784 38.2251 19.95V19.925Z" fill="#525252"/>
<path d="M0.112549 50.1125V57.2125C0.112549 58.9001 6.80005 60.2751 15.1125 60.2751C23.425 60.2751 30.1125 58.9001 30.1125 57.2125V50.1125H0.112549Z" fill="#B485FF"/>
<path d="M30 50.1125C30 51.8 23.3125 53.175 15 53.175C6.68755 53.175 0.112549 51.8 0.112549 50.1125C0.112549 48.425 6.80005 47.05 15.1125 47.05C23.425 47.05 30 48.4125 30 50.1125Z" fill="#6536B3"/>
<path d="M0.112549 40V47.1C0.112549 48.7875 6.80005 50.1625 15.1125 50.1625C23.425 50.1625 30 48.75 30 47.05V40H0.112549Z" fill="#B485FF"/>
<path d="M30 40C30 41.6875 23.3125 43.0625 15 43.0625C6.68755 43.0625 0.112549 41.6375 0.112549 40C0.112549 38.3625 6.80005 36.9375 15.1125 36.9375C23.425 36.9375 30 38.25 30 40Z" fill="#6536B3"/>
<path d="M0.112549 29.7875V36.8875C0.112549 38.575 6.80005 39.95 15.1125 39.95C23.425 39.95 30.1125 38.575 30.1125 36.8875V29.7875H0.112549Z" fill="#B485FF"/>
<path d="M15.0501 32.85C23.3068 32.85 30.0001 31.4788 30.0001 29.7875C30.0001 28.0961 23.3068 26.725 15.0501 26.725C6.79344 26.725 0.100098 28.0961 0.100098 29.7875C0.100098 31.4788 6.79344 32.85 15.0501 32.85Z" fill="#6536B3"/>
</svg>
