<svg width="61" height="60" viewBox="0 0 61 60" fill="none" xmlns="http://www.w3.org/2000/svg">
<path d="M30 60C46.5685 60 60 46.5685 60 30C60 13.4315 46.5685 0 30 0C13.4315 0 0 13.4315 0 30C0 46.5685 13.4315 60 30 60Z" fill="#F5F2E1"/>
<path d="M29.375 12.0375H30.625V30.0125H29.375V12.0375Z" fill="#6536B3"/>
<path d="M60.0001 29.7375L34.5875 27.1125L27.2375 31.9L48.7501 53.425C52.2614 50.6136 55.0957 47.0486 57.043 42.9938C58.9904 38.939 60.001 34.4982 60.0001 30C60.0063 29.9126 60.0063 29.8249 60.0001 29.7375Z" fill="#525252"/>
<path fill-rule="evenodd" clip-rule="evenodd" d="M30.7149 33.2991C30.4844 33.3488 30.2453 33.375 30 33.375C28.136 33.375 26.625 31.864 26.625 30C26.625 28.136 28.136 26.625 30 26.625C30.2453 26.625 30.4844 26.6512 30.7149 26.7009L44.725 28.1875C45.1725 28.234 45.5867 28.4454 45.8871 28.7804C46.1874 29.1154 46.3524 29.5501 46.35 30C46.3524 30.4499 46.1874 30.8847 45.8871 31.2196C45.5867 31.5546 45.1725 31.766 44.725 31.8125L30.7149 33.2991Z" fill="#B485FF"/>
</svg>
