<svg width="60" height="40" viewBox="0 0 60 40" fill="none" xmlns="http://www.w3.org/2000/svg">
<path d="M13.7499 24.1375V22.2C13.7507 21.4401 13.5512 20.6933 13.1716 20.035C12.792 19.3767 12.2456 18.83 11.5874 18.45C10.9304 18.0692 10.1844 17.8687 9.42494 17.8687C8.66549 17.8687 7.91951 18.0692 7.26244 18.45C6.60431 18.83 6.05791 19.3767 5.67827 20.035C5.29863 20.6933 5.09916 21.4401 5.09994 22.2V24.1375C5.09539 24.805 5.26909 25.4616 5.6031 26.0395C5.9371 26.6175 6.41932 27.0957 6.99994 27.425C7.73805 27.8483 8.57409 28.071 9.42494 28.071C10.2758 28.071 11.1118 27.8483 11.8499 27.425C12.4306 27.0957 12.9128 26.6175 13.2468 26.0395C13.5808 25.4616 13.7545 24.805 13.7499 24.1375Z" fill="#6536B3"/>
<path d="M18.075 40.0001H0.8375C0.615381 40.0001 0.40236 39.9118 0.245298 39.7548C0.0882364 39.5977 0 39.3847 0 39.1626V36.8751C-1.08658e-06 35.633 0.244844 34.4032 0.720532 33.2558C1.19622 32.1085 1.89342 31.0662 2.77226 30.1885C3.6511 29.3108 4.69433 28.615 5.8423 28.1408C6.99027 27.6666 8.22046 27.4234 9.4625 27.4251C10.7045 27.4234 11.9347 27.6666 13.0827 28.1408C14.2307 28.615 15.2739 29.3108 16.1527 30.1885C17.0316 31.0662 17.7288 32.1085 18.2045 33.2558C18.6802 34.4032 18.925 35.633 18.925 36.8751V39.1626C18.9217 39.3858 18.8307 39.5988 18.6717 39.7555C18.5126 39.9122 18.2983 40.0001 18.075 40.0001Z" fill="#6536B3"/>
<path d="M54.8625 24.1375V22.2C54.8633 21.4401 54.6638 20.6933 54.2842 20.035C53.9045 19.3767 53.3581 18.83 52.7 18.45C52.0429 18.0692 51.2969 17.8687 50.5375 17.8687C49.778 17.8687 49.0321 18.0692 48.375 18.45C47.7169 18.83 47.1705 19.3767 46.7908 20.035C46.4112 20.6933 46.2117 21.4401 46.2125 22.2V24.1375C46.2079 24.805 46.3816 25.4616 46.7156 26.0395C47.0497 26.6175 47.5319 27.0957 48.1125 27.425C48.8506 27.8483 49.6866 28.071 50.5375 28.071C51.3883 28.071 52.2244 27.8483 52.9625 27.425C53.5431 27.0957 54.0253 26.6175 54.3593 26.0395C54.6933 25.4616 54.867 24.805 54.8625 24.1375Z" fill="#6536B3"/>
<path d="M59.1626 40.0001H41.9251C41.7018 40.0001 41.4875 39.9122 41.3284 39.7555C41.1694 39.5988 41.0784 39.3858 41.0751 39.1626V36.8751C41.0751 35.633 41.3199 34.4032 41.7956 33.2558C42.2713 32.1085 42.9685 31.0662 43.8473 30.1885C44.7262 29.3108 45.7694 28.615 46.9174 28.1408C48.0653 27.6666 49.2955 27.4234 50.5376 27.4251C51.7796 27.4234 53.0098 27.6666 54.1578 28.1408C55.3057 28.615 56.349 29.3108 57.2278 30.1885C58.1067 31.0662 58.8039 32.1085 59.2795 33.2558C59.7552 34.4032 60.0001 35.633 60.0001 36.8751V39.1626C60.0001 39.3847 59.9118 39.5977 59.7548 39.7548C59.5977 39.9118 59.3847 40.0001 59.1626 40.0001Z" fill="#6536B3"/>
<path d="M37.6875 11.8001V8.36256C37.6877 7.01315 37.3333 5.68737 36.6598 4.51806C35.9863 3.34874 35.0174 2.37696 33.85 1.70006C32.6795 1.02425 31.3516 0.668457 30 0.668457C28.6484 0.668457 27.3206 1.02425 26.15 1.70006C24.9826 2.37696 24.0137 3.34874 23.3402 4.51806C22.6667 5.68737 22.3123 7.01315 22.3125 8.36256V11.8001C22.3114 12.9841 22.6229 14.1474 23.2155 15.1724C23.8081 16.1974 24.6609 17.0478 25.6875 17.6376C26.997 18.3995 28.485 18.8009 30 18.8009C31.515 18.8009 33.003 18.3995 34.3125 17.6376C35.3391 17.0478 36.1919 16.1974 36.7845 15.1724C37.3771 14.1474 37.6886 12.9841 37.6875 11.8001Z" fill="#B485FF"/>
<path d="M45.325 40H14.675C14.4781 40 14.283 39.9612 14.101 39.8858C13.919 39.8104 13.7537 39.6999 13.6144 39.5606C13.4751 39.4213 13.3646 39.256 13.2892 39.074C13.2138 38.892 13.175 38.6969 13.175 38.5V34.45C13.1784 29.9899 14.9525 25.7136 18.1074 22.561C21.2623 19.4084 25.5399 17.6374 30 17.6375C34.4601 17.6374 38.7378 19.4084 41.8927 22.561C45.0476 25.7136 46.8217 29.9899 46.825 34.45V38.5C46.825 38.8978 46.667 39.2793 46.3857 39.5606C46.1044 39.8419 45.7229 40 45.325 40Z" fill="#B485FF"/>
</svg>
