<svg width="48" height="60" viewBox="0 0 48 60" fill="none" xmlns="http://www.w3.org/2000/svg">
<path d="M41.8001 6.69995H6.1876C3.13622 6.69995 0.662598 9.17358 0.662598 12.225V54.475C0.662598 57.5263 3.13622 60 6.1876 60H41.8001C44.8515 60 47.3251 57.5263 47.3251 54.475V12.225C47.3251 9.17358 44.8515 6.69995 41.8001 6.69995Z" fill="#F5F2E1"/>
<path d="M10.8751 6.94995H36.7126V9.23745C36.7126 9.64619 36.6321 10.0509 36.4757 10.4286C36.3193 10.8062 36.09 11.1493 35.801 11.4383C35.512 11.7273 35.1688 11.9566 34.7912 12.113C34.4136 12.2694 34.0089 12.3499 33.6001 12.3499H14.0001C13.1746 12.3499 12.383 12.022 11.7993 11.4383C11.2155 10.8546 10.8876 10.0629 10.8876 9.23745V6.94995H10.8751Z" fill="#525252"/>
<path d="M33.6001 3.83746H30.4126C29.7868 3.82352 29.1759 3.64377 28.6423 3.31656C28.1086 2.98935 27.6714 2.5264 27.3751 1.97496C27.0377 1.37682 26.5474 0.879098 25.9543 0.532759C25.3613 0.18642 24.6869 0.00390625 24.0001 0.00390625C23.3134 0.00390625 22.6389 0.18642 22.0459 0.532759C21.4529 0.879098 20.9626 1.37682 20.6251 1.97496C20.3299 2.52724 19.8929 2.9909 19.359 3.31825C18.8252 3.64559 18.2137 3.82481 17.5876 3.83746H14.4126C13.9729 3.79445 13.5291 3.84224 13.1086 3.97788C12.6881 4.11351 12.3 4.33408 11.9683 4.62592C11.6366 4.91776 11.3684 5.27464 11.1804 5.67442C10.9923 6.07421 10.8884 6.50836 10.8751 6.94996V7.99996C10.8751 8.41768 11.0411 8.81829 11.3364 9.11366C11.6318 9.40903 12.0324 9.57496 12.4501 9.57496H35.1376C35.5543 9.57169 35.953 9.40471 36.2477 9.11004C36.5424 8.81538 36.7094 8.41667 36.7126 7.99996V6.94996C36.7143 6.54076 36.6349 6.13528 36.4791 5.75691C36.3232 5.37853 36.094 5.03476 35.8047 4.74541C35.5153 4.45605 35.1716 4.22685 34.7932 4.07102C34.4148 3.91519 34.0093 3.83581 33.6001 3.83746Z" fill="#B485FF"/>
<path d="M27.3751 1.97496C27.0377 1.37682 26.5474 0.879098 25.9544 0.532759C25.3613 0.18642 24.6869 0.00390625 24.0001 0.00390625C23.3134 0.00390625 22.639 0.18642 22.0459 0.532759C21.4529 0.879098 20.9626 1.37682 20.6251 1.97496C20.3299 2.52724 19.8929 2.9909 19.359 3.31825C18.8252 3.64559 18.2137 3.82481 17.5876 3.83746H30.4126C29.7868 3.82352 29.1759 3.64377 28.6423 3.31656C28.1086 2.98935 27.6714 2.5264 27.3751 1.97496Z" fill="#6536B3"/>
<path d="M14.1876 29.2749L11.5001 26.5749C11.1688 26.2563 10.9597 25.8316 10.9095 25.3747C10.8592 24.9178 10.9709 24.4578 11.2251 24.0749C11.3845 23.8478 11.5917 23.6585 11.8322 23.5201C12.0726 23.3817 12.3404 23.2976 12.6168 23.2738C12.8932 23.25 13.1715 23.2869 13.432 23.3822C13.6926 23.4774 13.9292 23.6285 14.1251 23.8249L15.0501 24.7374L18.9001 20.8999C19.2184 20.5687 19.6421 20.3589 20.0984 20.3064C20.5547 20.2539 21.015 20.3621 21.4001 20.6124C21.6265 20.774 21.815 20.9831 21.9523 21.2251C22.0896 21.4671 22.1724 21.7362 22.195 22.0135C22.2177 22.2908 22.1795 22.5697 22.0832 22.8307C21.9869 23.0918 21.8349 23.3286 21.6376 23.5249L15.8751 29.2749C15.6447 29.4857 15.3437 29.6026 15.0313 29.6026C14.719 29.6026 14.418 29.4857 14.1876 29.2749Z" fill="#6536B3"/>
<path d="M25.8876 21.0625H36.7001V22.55H25.8876V21.0625Z" fill="#A1A0A3"/>
<path d="M25.8876 24.2H36.7001V25.6875H25.8876V24.2Z" fill="#A1A0A3"/>
<path d="M25.8876 27.3374H31.3001V28.8249H25.8876V27.3374Z" fill="#A1A0A3"/>
<path d="M14.1876 46.1001L11.5001 43.4001C11.1688 43.0815 10.9597 42.6568 10.9095 42.1999C10.8592 41.743 10.9709 41.283 11.2251 40.9001C11.3845 40.673 11.5917 40.4837 11.8322 40.3453C12.0726 40.2069 12.3404 40.1228 12.6168 40.099C12.8932 40.0752 13.1715 40.1121 13.432 40.2073C13.6926 40.3026 13.9292 40.4537 14.1251 40.6501L15.0501 41.5751L18.9001 37.7251C19.2184 37.3939 19.6421 37.1841 20.0984 37.1316C20.5547 37.0791 21.015 37.1873 21.4001 37.4376C21.6265 37.5992 21.815 37.8083 21.9523 38.0503C22.0896 38.2923 22.1724 38.5614 22.195 38.8387C22.2177 39.116 22.1795 39.3949 22.0832 39.6559C21.9869 39.917 21.8349 40.1538 21.6376 40.3501L15.8751 46.1001C15.6447 46.3109 15.3437 46.4278 15.0313 46.4278C14.719 46.4278 14.418 46.3109 14.1876 46.1001Z" fill="#6536B3"/>
<path d="M25.8876 37.8875H36.7001V39.375H25.8876V37.8875Z" fill="#A1A0A3"/>
<path d="M25.8876 41.0249H36.7001V42.5124H25.8876V41.0249Z" fill="#A1A0A3"/>
<path d="M25.8876 44.1626H31.3001V45.6501H25.8876V44.1626Z" fill="#A1A0A3"/>
</svg>
