<svg width="60" height="48" viewBox="0 0 60 48" fill="none" xmlns="http://www.w3.org/2000/svg">
<path d="M22.4 41.475L56.8 41.475C58.5673 41.475 60 40.0423 60 38.275V15.35C60 13.5827 58.5673 12.15 56.8 12.15L22.4 12.15C20.6327 12.15 19.2 13.5827 19.2 15.35V38.275C19.2 40.0423 20.6327 41.475 22.4 41.475Z" fill="#A1A0A3"/>
<path d="M38.3001 12.1625V26.6375C38.3001 26.8198 38.2276 26.9947 38.0987 27.1236C37.9698 27.2525 37.7949 27.325 37.6126 27.325H19.2001V32.325H37.6126C39.121 32.325 40.5676 31.7258 41.6342 30.6591C42.7009 29.5925 43.3001 28.1459 43.3001 26.6375V12.1625H38.3001Z" fill="#525252"/>
<path d="M52.0625 36.5625V47.1625C52.062 47.2289 52.042 47.2937 52.0049 47.3488C51.9678 47.4039 51.9152 47.4468 51.8538 47.4722C51.7924 47.4975 51.7249 47.5042 51.6598 47.4914C51.5946 47.4785 51.5347 47.4467 51.4875 47.4L41.1625 36.5625H52.0625Z" fill="#A1A0A3"/>
<path d="M37.6 0.5H3.2C1.43269 0.5 0 1.93269 0 3.7V26.625C0 28.3923 1.43269 29.825 3.2 29.825H37.6C39.3673 29.825 40.8 28.3923 40.8 26.625V3.7C40.8 1.93269 39.3673 0.5 37.6 0.5Z" fill="#6536B3"/>
<path d="M22.3876 12.1625C21.5422 12.1625 20.7314 12.4983 20.1337 13.0961C19.5359 13.6938 19.2001 14.5046 19.2001 15.35V29.825H37.6126C38.458 29.825 39.2687 29.4892 39.8665 28.8914C40.4642 28.2936 40.8001 27.4829 40.8001 26.6375V12.1625H22.3876Z" fill="#B485FF"/>
<path d="M7.9375 24.9V35.5125C7.94031 35.5779 7.96205 35.641 8.00008 35.6942C8.03811 35.7475 8.09078 35.7885 8.1517 35.8123C8.21262 35.8362 8.27916 35.8418 8.34321 35.8285C8.40727 35.8152 8.46608 35.7836 8.5125 35.7375L18.8375 24.9H7.9375Z" fill="#6536B3"/>
<path d="M13.1249 15.1625C13.1274 15.386 13.0632 15.6053 12.9406 15.7922C12.8179 15.9791 12.6423 16.1252 12.4363 16.2119C12.2302 16.2986 12.003 16.3219 11.7836 16.2789C11.5642 16.2359 11.3626 16.1285 11.2045 15.9704C11.0464 15.8123 10.939 15.6107 10.896 15.3914C10.853 15.172 10.8763 14.9447 10.963 14.7387C11.0497 14.5326 11.1958 14.357 11.3828 14.2344C11.5697 14.1117 11.7889 14.0475 12.0124 14.05C12.1585 14.05 12.3032 14.0788 12.4382 14.1347C12.5731 14.1906 12.6958 14.2725 12.7991 14.3758C12.9024 14.4791 12.9843 14.6018 13.0402 14.7368C13.0962 14.8717 13.1249 15.0164 13.1249 15.1625Z" fill="#F5F2E1"/>
<path d="M21.5251 15.1625C21.5276 15.3856 21.4637 15.6043 21.3416 15.7909C21.2195 15.9776 21.0447 16.1237 20.8393 16.2108C20.634 16.2979 20.4074 16.3219 20.1884 16.2799C19.9693 16.2379 19.7677 16.1318 19.6091 15.975C19.4505 15.8181 19.3421 15.6177 19.2977 15.3992C19.2533 15.1806 19.2748 14.9538 19.3596 14.7475C19.4443 14.5412 19.5885 14.3647 19.7738 14.2405C19.959 14.1164 20.177 14.0501 20.4001 14.05C20.6963 14.05 20.9806 14.1668 21.1912 14.3751C21.4018 14.5834 21.5218 14.8664 21.5251 15.1625Z" fill="#F5F2E1"/>
<path d="M29.9126 15.1625C29.9051 15.3817 29.8338 15.5938 29.7074 15.773C29.581 15.9521 29.405 16.0904 29.201 16.1709C28.9971 16.2514 28.7741 16.2705 28.5594 16.2259C28.3447 16.1813 28.1477 16.0749 27.9927 15.9199C27.8377 15.7649 27.7313 15.5679 27.6867 15.3532C27.6421 15.1385 27.6612 14.9155 27.7417 14.7116C27.8222 14.5076 27.9605 14.3316 28.1396 14.2052C28.3188 14.0788 28.5309 14.0075 28.7501 14C28.9041 13.9948 29.0576 14.0213 29.201 14.0779C29.3444 14.1344 29.4747 14.2199 29.5837 14.3289C29.6927 14.4379 29.7782 14.5682 29.8347 14.7116C29.8913 14.855 29.9178 15.0085 29.9126 15.1625Z" fill="#F5F2E1"/>
</svg>
