<svg width="61" height="60" viewBox="0 0 61 60" fill="none" xmlns="http://www.w3.org/2000/svg">
<path d="M43.7787 32.3762L33.3412 42.815C33.1091 43.0474 32.8333 43.2318 32.5298 43.3576C32.2263 43.4834 31.901 43.5482 31.5725 43.5482C31.2439 43.5482 30.9186 43.4834 30.6151 43.3576C30.3116 43.2318 30.0359 43.0474 29.8037 42.815L2.30873 15.3175C1.45801 14.4666 0.980103 13.3126 0.980103 12.1094C0.980103 10.9061 1.45801 9.75215 2.30873 8.90124L9.84748 1.36124C10.2688 0.939816 10.7691 0.605523 11.3196 0.377447C11.8702 0.149372 12.4603 0.0319824 13.0562 0.0319824C13.6522 0.0319824 14.2423 0.149372 14.7928 0.377447C15.3434 0.605523 15.8436 0.939816 16.265 1.36124L43.78 28.8762C44.0122 29.1084 44.1965 29.384 44.3222 29.6874C44.4479 29.9908 44.5126 30.316 44.5126 30.6444C44.5126 30.9727 44.4479 31.2979 44.3222 31.6013C44.1965 31.9047 44.0122 32.1803 43.78 32.4125L43.7787 32.3762Z" fill="#525252"/>
<path d="M15.9001 6.08752L11.4976 10.49L10.3051 9.29752L14.7063 4.89502L15.9001 6.08752Z" fill="#A1A0A3"/>
<path d="M18.3937 8.59631L16.1937 10.7963L15 9.60381L17.2 7.40381L18.3937 8.59631Z" fill="#A1A0A3"/>
<path d="M20.9962 11.2L16.595 15.6012L15.4012 14.4087L19.8037 10.0062L20.9962 11.2Z" fill="#A1A0A3"/>
<path d="M23.4912 13.6775L21.2899 15.8775L20.0962 14.685L22.2962 12.485L23.4912 13.6775Z" fill="#A1A0A3"/>
<path d="M26.0924 16.2787L21.6912 20.68L20.4974 19.4875L24.8999 15.085L26.0924 16.2787Z" fill="#A1A0A3"/>
<path d="M28.595 18.775L26.395 20.9763L25.2013 19.7838L27.4013 17.5825L28.595 18.775Z" fill="#A1A0A3"/>
<path d="M31.19 21.3874L26.7875 25.7899L25.595 24.5962L29.995 20.1949L31.19 21.3874Z" fill="#A1A0A3"/>
<path d="M33.67 23.8625L31.47 26.0638L30.2762 24.8713L32.4762 22.6713L33.67 23.8625Z" fill="#A1A0A3"/>
<path d="M36.2725 26.465L31.87 30.8662L30.6775 29.6725L35.0787 25.2725L36.2725 26.465Z" fill="#A1A0A3"/>
<path d="M38.7775 28.9625L36.5775 31.1625L35.3838 29.97L37.5838 27.77L38.7775 28.9625Z" fill="#A1A0A3"/>
<path d="M59.0813 53.33L54.3438 58.0675C53.7425 58.6688 53.0287 59.1458 52.2431 59.4713C51.4574 59.7967 50.6154 59.9642 49.765 59.9642C48.9147 59.9642 48.0726 59.7967 47.287 59.4713C46.5014 59.1458 45.7876 58.6688 45.1863 58.0675L19.005 31.8875C18.5364 31.4187 18.2731 30.7829 18.2731 30.12C18.2731 29.4571 18.5364 28.8213 19.005 28.3525L29.3825 17.975C29.8514 17.5063 30.4871 17.243 31.15 17.243C31.8129 17.243 32.4487 17.5063 32.9175 17.975L59.09 44.1475C60.3041 45.3618 60.9861 47.0085 60.9861 48.7256C60.9861 50.4427 60.3041 52.0895 59.09 53.3038L59.0813 53.33Z" fill="#525252"/>
<path d="M34.0337 24.225L29.6325 28.625L28.4387 27.4325L32.8412 23.03L34.0337 24.225Z" fill="#A1A0A3"/>
<path d="M36.5238 26.7213L34.3238 28.9226L33.13 27.7301L35.33 25.5288L36.5238 26.7213Z" fill="#A1A0A3"/>
<path d="M39.1275 29.3249L34.725 33.7274L33.5325 32.5337L37.9325 28.1324L39.1275 29.3249Z" fill="#A1A0A3"/>
<path d="M41.6199 31.8125L39.4199 34.0137L38.2262 32.8212L40.4262 30.62L41.6199 31.8125Z" fill="#A1A0A3"/>
<path d="M44.2125 34.4113L39.8125 38.8125L38.6188 37.6188L43.02 33.2175L44.2125 34.4113Z" fill="#A1A0A3"/>
<path d="M46.7163 36.91L44.5163 39.11L43.3225 37.9175L45.5225 35.7175L46.7163 36.91Z" fill="#A1A0A3"/>
<path d="M49.3188 39.5113L44.9175 43.9125L43.7238 42.72L48.125 38.3175L49.3188 39.5113Z" fill="#A1A0A3"/>
<path d="M51.8 42L49.6 44.2025L48.4062 43.0087L50.6063 40.8087L51.8 42Z" fill="#A1A0A3"/>
<path d="M54.3937 44.5988L49.9925 49L48.7987 47.8075L53.2 43.405L54.3937 44.5988Z" fill="#A1A0A3"/>
<path d="M56.8962 47.0975L54.6962 49.2975L53.5024 48.105L55.7024 45.905L56.8962 47.0975Z" fill="#A1A0A3"/>
<path d="M28.1125 46.9749L57.85 17.2374C59.0852 15.9995 59.9743 14.4592 60.4283 12.7703C60.8823 11.0814 60.8855 9.30294 60.4375 7.61244C59.9818 5.9233 59.0909 4.38328 57.8537 3.14617C56.6166 1.90906 55.0766 1.01816 53.3875 0.56244C51.697 0.114436 49.9185 0.117607 48.2296 0.571635C46.5407 1.02566 45.0005 1.91467 43.7625 3.14994L14.025 32.8874C10.2987 36.6175 7.38359 41.0775 5.46248 45.9874L1.39998 56.3499C1.21812 56.8043 1.17361 57.302 1.27194 57.7813C1.37028 58.2607 1.60715 58.7007 1.95318 59.0467C2.29921 59.3928 2.73919 59.6296 3.21857 59.728C3.69796 59.8263 4.19566 59.7818 4.64998 59.5999L15.0125 55.5374C19.9224 53.6163 24.3824 50.7012 28.1125 46.9749Z" fill="#6536B3"/>
<path d="M60.4374 7.61244C59.9817 5.9233 59.0908 4.38328 57.8537 3.14617C56.6166 1.90906 55.0766 1.01816 53.3874 0.56244C51.6969 0.114436 49.9185 0.117607 48.2296 0.571635C46.5407 1.02566 45.0004 1.91467 43.7624 3.14994L33.7625 13.1499C34.6553 12.0883 35.7594 11.224 37.0043 10.612C38.2493 10.0001 39.6079 9.65386 40.9939 9.59536C42.3799 9.53686 43.7629 9.76737 45.055 10.2722C46.3471 10.7771 47.5201 11.5453 48.4992 12.528C49.4784 13.5106 50.2424 14.6863 50.7427 15.9801C51.243 17.274 51.4686 18.6578 51.4052 20.0436C51.3418 21.4294 50.9907 22.7868 50.3743 24.0296C49.758 25.2724 48.8898 26.3733 47.8249 27.2624L57.8249 17.2624C59.0688 16.0246 59.9651 14.4812 60.4237 12.7873C60.8822 11.0935 60.887 9.30874 60.4374 7.61244Z" fill="#B485FF"/>
<path d="M60.4374 7.61244C59.9817 5.9233 59.0908 4.38328 57.8537 3.14617C56.6166 1.90906 55.0766 1.01816 53.3874 0.56244C51.6969 0.114436 49.9185 0.117607 48.2296 0.571635C46.5407 1.02566 45.0004 1.91467 43.7624 3.14994L33.7625 13.1499C34.6553 12.0883 35.7594 11.224 37.0043 10.612C38.2493 10.0001 39.6079 9.65386 40.9939 9.59536C42.3799 9.53686 43.7629 9.76737 45.055 10.2722C46.3471 10.7771 47.5201 11.5453 48.4992 12.528C49.4784 13.5106 50.2424 14.6863 50.7427 15.9801C51.243 17.274 51.4686 18.6578 51.4052 20.0436C51.3418 21.4294 50.9907 22.7868 50.3743 24.0296C49.758 25.2724 48.8898 26.3733 47.8249 27.2624L57.8249 17.2624C59.0688 16.0246 59.9651 14.4812 60.4237 12.7873C60.8822 11.0935 60.887 9.30874 60.4374 7.61244Z" fill="#B485FF"/>
<path d="M12.4625 41.4999C10.8776 41.0695 9.20995 41.0437 7.61248 41.4249C6.79311 42.8952 6.07478 44.4196 5.46248 45.9874L1.39998 56.3499C1.21812 56.8043 1.17361 57.302 1.27194 57.7813C1.37028 58.2607 1.60715 58.7007 1.95318 59.0467C2.29921 59.3928 2.73919 59.6296 3.21857 59.728C3.69796 59.8263 4.19566 59.7818 4.64998 59.5999L15.0125 55.5374C16.5803 54.9251 18.1047 54.2068 19.575 53.3874C19.9563 51.79 19.9305 50.1224 19.5 48.5374C19.0515 46.8481 18.1644 45.3074 16.9285 44.0714C15.6926 42.8355 14.1518 41.9484 12.4625 41.4999Z" fill="#F5F2E1"/>
<path d="M8.49995 56.1C8.26835 55.2301 7.81117 54.4368 7.17465 53.8003C6.53813 53.1637 5.74483 52.7066 4.87495 52.475C4.24643 52.3153 3.59385 52.2729 2.94995 52.35L1.37495 56.35C1.1931 56.8043 1.14858 57.302 1.24692 57.7814C1.34526 58.2607 1.58213 58.7007 1.92816 59.0468C2.27419 59.3928 2.71417 59.6297 3.19355 59.728C3.67293 59.8263 4.17063 59.7818 4.62495 59.6L8.62495 58.025C8.70864 57.3813 8.66618 56.7274 8.49995 56.1Z" fill="#6536B3"/>
</svg>
