<svg width="19" height="18" viewBox="0 0 19 18" fill="none" xmlns="http://www.w3.org/2000/svg">
    <path
        d="M9.5 0C4.529 0 0.5 4.02975 0.5 9C0.5 13.9703 4.529 18 9.5 18C14.471 18 18.5 13.9703 18.5 9C18.5 4.02975 14.471 0 9.5 0ZM16.9137 8.58075C14.9825 8.26425 13.2065 8.247 11.5865 8.526C11.4035 8.10375 11.2137 7.68225 11.0113 7.266C12.7438 6.516 14.135 5.4975 15.1722 4.2045C16.1847 5.4 16.82 6.91875 16.9137 8.58075ZM14.0322 3.11925C13.1285 4.28475 11.8813 5.2065 10.2928 5.87925C9.53075 4.4835 8.65925 3.12225 7.67675 1.80075C8.261 1.653 8.87 1.56525 9.5 1.56525C11.2063 1.56525 12.776 2.1495 14.0322 3.11925ZM6.14525 2.3745C7.1435 3.681 8.0285 5.028 8.798 6.41025C6.9755 6.9465 4.79975 7.22175 2.285 7.239C2.804 5.11275 4.23575 3.34425 6.14525 2.3745ZM2.06525 9L2.075 8.808C4.96175 8.80425 7.45175 8.472 9.5375 7.8165C9.71225 8.17275 9.8795 8.5305 10.04 8.8905C7.505 9.68325 5.41625 11.307 3.78725 13.7505C2.71325 12.4612 2.06525 10.8053 2.06525 9ZM4.937 14.8575C6.41375 12.5415 8.2985 11.034 10.6355 10.3372C11.3315 12.1523 11.8422 14.0197 12.1678 15.9323C9.656 16.9005 6.953 16.4317 4.937 14.8575ZM13.6265 15.18C13.298 13.4152 12.8165 11.6903 12.1865 10.0072C13.5935 9.8085 15.1415 9.86025 16.8358 10.1542C16.508 12.2437 15.3148 14.0483 13.6265 15.18Z"
        fill="#525252" />
</svg>