<svg width="32" height="32" viewBox="0 0 32 32" fill="none" xmlns="http://www.w3.org/2000/svg">
    <path fill-rule="evenodd" clip-rule="evenodd"
        d="M3.51999 4.79999L2.66666 8.66665L3.99999 9.99999L5.27007 5.55472C12.4827 9.00412 17.3604 16.0142 18.1993 23.9291C17.5547 22.9599 16.8335 22.0463 16.0388 21.186C15.8254 21.0065 15.168 20.9678 14.6997 20.9402C14.5234 20.9299 14.374 20.9211 14.2851 20.9069C14.1963 20.8928 14.0371 20.8824 13.8494 20.8702C13.3688 20.839 12.7009 20.7957 12.5465 20.6452C12.5415 20.6394 12.5364 20.6336 12.5314 20.6278C12.5357 20.6338 12.5407 20.6395 12.5465 20.6452C14.5675 22.9618 16.3453 25.5709 17.9081 28.2778C17.9081 28.2778 18.027 28.3643 18.1565 28.3849L18.146 28.4509C18.1996 28.3267 19.0338 28.5259 19.868 28.725C20.7022 28.9241 21.5364 29.1232 21.59 28.999C22.9404 25.5502 24.8303 22.455 27.1464 19.6254C27.0307 19.7094 26.167 19.5164 25.688 19.4094C25.5457 19.3777 25.4374 19.3535 25.3927 19.3464C25.3479 19.3392 25.2363 19.3145 25.0896 19.282C24.5959 19.1727 23.7057 18.9756 23.6389 19.0673L23.6387 19.0675C22.8029 20.1341 21.967 21.2006 21.2505 22.3512C19.8095 14.6614 14.4603 8.07971 6.9221 5.2147C6.33398 4.97423 5.64801 4.96288 4.99057 4.95199C4.52972 4.94436 4.08289 4.93696 3.6936 4.85105L3.51999 4.79999Z"
        fill="#B485FF" />
</svg>