<svg width="50" height="24" viewBox="0 0 50 24" fill="none" xmlns="http://www.w3.org/2000/svg">
<path fill-rule="evenodd" clip-rule="evenodd" d="M48.4917 16.9755C49.3343 16.3737 49.7555 15.5065 49.7555 14.3741C49.7555 13.8926 49.6817 13.4686 49.5339 13.1021C49.3862 12.73 49.1729 12.41 48.8938 12.1419C48.7571 12.0106 48.5929 11.8875 48.4015 11.7726C48.2155 11.6577 48.0021 11.5483 47.7614 11.4444C47.5206 11.3459 47.2006 11.2447 46.8012 11.1407C46.4018 11.0313 45.9259 10.9164 45.3733 10.7961C44.4214 10.5936 43.8004 10.4268 43.5105 10.2955C43.2041 10.1587 42.9716 9.99457 42.8129 9.80309C42.6597 9.61161 42.5831 9.36542 42.5831 9.06451C42.5831 8.60496 42.7664 8.26029 43.133 8.03051C43.4995 7.80073 44.0493 7.68584 44.7824 7.68584C45.4718 7.68584 45.9997 7.81167 46.3663 8.06333C46.7383 8.315 46.9845 8.68976 47.1049 9.18761L49.4519 8.86756C49.244 7.83355 48.779 7.09224 48.0568 6.64363C47.3401 6.19501 46.2651 5.9707 44.8317 5.9707C43.3326 5.9707 42.1892 6.24972 41.4014 6.80776C40.6191 7.36032 40.2279 8.15908 40.2279 9.20402C40.2279 9.81677 40.3428 10.3283 40.5726 10.7386C40.8023 11.1489 41.1224 11.4772 41.5327 11.7234C41.7187 11.8328 41.9102 11.934 42.1072 12.027C42.3041 12.1146 42.5667 12.2076 42.895 12.306C43.2232 12.399 43.6773 12.5139 44.2572 12.6507C44.7606 12.7547 45.1818 12.8504 45.521 12.9379C45.8602 13.02 46.1174 13.0966 46.2924 13.1677C46.648 13.31 46.9216 13.4878 47.1131 13.7011C47.3045 13.9145 47.4003 14.1853 47.4003 14.5136C47.4003 15.0278 47.1897 15.4135 46.7684 15.6707C46.3471 15.9278 45.7125 16.0564 44.8645 16.0564C44.0493 16.0564 43.412 15.9196 42.9524 15.646C42.4929 15.367 42.1838 14.9211 42.0251 14.3084L39.6863 14.6941C40.1677 16.8114 41.8719 17.87 44.7989 17.87C46.4237 17.87 47.6547 17.5718 48.4917 16.9755ZM19.9888 17.9109C18.8877 17.9109 18.05 17.6168 17.4756 17.0287C16.9011 16.4406 16.6139 15.6302 16.6139 14.5975C16.6139 13.4487 16.99 12.5699 17.7423 11.9612C18.4945 11.3526 19.6708 11.0278 21.271 10.9867L23.7227 10.9457V10.361C23.7227 9.513 23.5517 8.90094 23.2098 8.52482C22.8747 8.14869 22.3379 7.96063 21.5993 7.96063C20.8675 7.96063 20.3341 8.09398 19.999 8.36069C19.6708 8.6274 19.469 9.06165 19.3938 9.66345L17.1063 9.49933C17.4414 7.43405 18.963 6.40141 21.6711 6.40141C23.0662 6.40141 24.1227 6.72967 24.8408 7.38618C25.5657 8.04269 25.9282 8.98643 25.9282 10.2174V14.7514C25.9282 15.3259 26 15.7464 26.1436 16.0132C26.2872 16.273 26.5471 16.403 26.9232 16.403C27.1283 16.403 27.3335 16.379 27.5387 16.3312V17.6134C27.2651 17.6818 27.0052 17.7331 26.759 17.7673C26.5197 17.8015 26.2598 17.8186 25.9794 17.8186C25.2819 17.8186 24.769 17.6408 24.4407 17.2851C24.1193 16.9227 23.9347 16.3722 23.8868 15.6336H23.8253C23.3739 16.4406 22.8371 17.0219 22.2148 17.3775C21.5993 17.7331 20.8573 17.9109 19.9888 17.9109ZM23.7227 12.3408L21.8865 12.3716C21.0864 12.3921 20.4914 12.4776 20.1016 12.628C19.705 12.7785 19.4006 13.0076 19.1886 13.3153C18.9835 13.623 18.8809 14.0299 18.8809 14.536C18.8809 15.1173 19.0279 15.5618 19.322 15.8695C19.6229 16.1704 20.0401 16.3209 20.5735 16.3209C21.1821 16.3209 21.7224 16.1773 22.1942 15.8901C22.6661 15.6028 23.0388 15.2096 23.3124 14.7104C23.5859 14.2043 23.7227 13.6812 23.7227 13.1409V12.3408ZM31.6827 17.9109C30.5817 17.9109 29.744 17.6168 29.1695 17.0287C28.5951 16.4406 28.3079 15.6302 28.3079 14.5975C28.3079 13.4487 28.684 12.5699 29.4362 11.9612C30.1885 11.3526 31.3647 11.0278 32.965 10.9867L35.4167 10.9457V10.361C35.4167 9.513 35.2457 8.90094 34.9038 8.52482C34.5687 8.14869 34.0318 7.96063 33.2932 7.96063C32.5615 7.96063 32.0281 8.09398 31.693 8.36069C31.3647 8.6274 31.163 9.06165 31.0878 9.66345L28.8002 9.49933C29.1353 7.43405 30.6569 6.40141 33.3651 6.40141C34.7601 6.40141 35.8167 6.72967 36.5348 7.38618C37.2597 8.04269 37.6221 8.98643 37.6221 10.2174V14.7514C37.6221 15.3259 37.6939 15.7464 37.8375 16.0132C37.9812 16.273 38.241 16.403 38.6171 16.403C38.8223 16.403 39.0275 16.379 39.2326 16.3312V17.6134C38.9591 17.6818 38.6992 17.7331 38.453 17.7673C38.2137 17.8015 37.9538 17.8186 37.6734 17.8186C36.9759 17.8186 36.463 17.6408 36.1347 17.2851C35.8133 16.9227 35.6286 16.3722 35.5808 15.6336H35.5192C35.0679 16.4406 34.531 17.0219 33.9087 17.3775C33.2932 17.7331 32.5513 17.9109 31.6827 17.9109ZM35.4167 12.3408L33.5805 12.3716C32.7803 12.3921 32.1854 12.4776 31.7956 12.628C31.3989 12.7785 31.0946 13.0076 30.8826 13.3153C30.6775 13.623 30.5749 14.0299 30.5749 14.536C30.5749 15.1173 30.7219 15.5618 31.016 15.8695C31.3169 16.1704 31.734 16.3209 32.2674 16.3209C32.8761 16.3209 33.4163 16.1773 33.8882 15.8901C34.3601 15.6028 34.7328 15.2096 35.0063 14.7104C35.2799 14.2043 35.4167 13.6812 35.4167 13.1409V12.3408Z" fill="#B485FF"/>
<path fill-rule="evenodd" clip-rule="evenodd" d="M2.23214 17.3525C2.96524 17.6972 3.86248 17.8695 4.92384 17.8695C6.01802 17.8695 6.95082 17.689 7.72222 17.3279C8.49362 16.9613 9.08175 16.4334 9.48659 15.7441C9.89691 15.0547 10.1021 14.2231 10.1021 13.2493V6.14258H7.68119V13.1016C7.68119 14.0262 7.44867 14.7374 6.98364 15.2353C6.51861 15.7276 5.8539 15.9738 4.98949 15.9738C4.14697 15.9738 3.50687 15.7386 3.06919 15.2681C2.63699 14.7921 2.42089 14.0973 2.42089 13.1837V6.14258H0V13.3724C0 14.3353 0.188747 15.1532 0.566241 15.8261C0.943736 16.4936 1.49903 17.0024 2.23214 17.3525ZM14.6811 17.7053V8.95522H12.2602V17.7053H14.6811Z" fill="#0F0F0F"/>
<path d="M13.4328 0.746582C13.4328 2.80735 10.7599 4.47793 7.46265 4.47793C10.7599 4.47793 13.4328 6.1485 13.4328 8.20927C13.4328 6.1485 16.1057 4.47793 19.4029 4.47793C16.1057 4.47793 13.4328 2.80735 13.4328 0.746582Z" fill="#B485FF"/>
<path d="M13.4328 2.98535C13.4328 3.80966 12.0964 4.47789 10.4478 4.47789C12.0964 4.47789 13.4328 5.14612 13.4328 5.97043C13.4328 5.14612 14.7693 4.47789 16.4179 4.47789C14.7693 4.47789 13.4328 3.80966 13.4328 2.98535Z" fill="#0F0F0F"/>
</svg>
