<svg width="20" height="17" viewBox="0 0 20 17" fill="none" xmlns="http://www.w3.org/2000/svg">
<path fill-rule="evenodd" clip-rule="evenodd" d="M4.1949 0.629505C5.1042 2.66684 7.38214 5.45815 10 8.07735C12.6177 5.45741 14.8959 2.66684 15.8052 0.629505C17.7228 -1.28818 20.6215 1.61099 18.7036 3.52796C17.3218 5.53768 14.8098 7.9002 12.0906 10.068C14.3191 12.0863 16.5963 13.8306 18.3587 14.7931C21.6844 18.8336 15.9028 16.0123 10 11.6686C4.09653 16.0117 -1.68453 18.8336 1.64141 14.7931C3.40386 13.8306 5.68119 12.0863 7.90949 10.068C5.19042 7.9002 2.67838 5.53693 1.29644 3.52796C-0.621241 1.61028 2.27793 -1.28837 4.1949 0.629505Z" fill="#FF5174"/>
</svg>
