<svg width="14" height="13" viewBox="0 0 14 13" fill="none" xmlns="http://www.w3.org/2000/svg">
<path fill-rule="evenodd" clip-rule="evenodd" d="M2.64621 0.472105C3.32818 2.00011 5.03664 4.09359 7.00005 6.05799C8.96333 4.09303 10.6719 2.00011 11.3539 0.472105C12.7922 -0.966157 14.9661 1.20822 13.5277 2.64595C12.4914 4.15323 10.6074 5.92513 8.56796 7.55099C10.2393 9.06472 11.9472 10.3729 13.269 11.0948C15.7633 14.1252 11.4271 12.0092 7.00005 8.75139C2.57242 12.0087 -1.76336 14.1252 0.73109 11.0948C2.05292 10.3729 3.76092 9.06472 5.43215 7.55099C3.39285 5.92513 1.50881 4.15267 0.472362 2.64595C-0.9659 1.20769 1.20848 -0.966297 2.64621 0.472105Z" fill="white"/>
</svg>
