<svg width="33" height="32" viewBox="0 0 33 32" fill="none" xmlns="http://www.w3.org/2000/svg">
    <path
        d="M5.67966 26.2377C7.3244 18.3429 12.9836 12.0258 20.3514 9.39423C19.1025 8.8674 17.9177 8.2095 16.733 7.5516C16.6019 7.48478 16.733 5.9737 16.733 5.7758C16.733 5.57792 16.864 4.13106 16.733 4.00001C19.8914 5.84264 23.2451 7.22265 26.8633 8.01423C27.1254 8.08105 26.6011 11.4348 26.8633 11.5016H26.7964C26.7964 11.6327 26.7296 11.7637 26.7296 11.7637C24.2959 13.7374 21.9933 15.909 20.0197 18.2759C20.2176 18.078 20.0197 16.829 20.0197 16.5001C20.0197 16.1711 19.8219 15.0532 20.0197 14.7243C20.7445 13.8043 21.5334 12.9485 22.3892 12.1595C14.0984 14.3953 7.58656 21.1082 5.8109 29.6609C5.94453 28.6715 5.4177 27.3557 5.67983 26.2378L5.67966 26.2377Z"
        fill="#B485FF" />
</svg>